<mxfile host="app.diagrams.net" modified="2024-02-11T10:35:48.247Z" agent="Mozilla/5.0 (Windows NT 10.0; Win64; x64) AppleWebKit/537.36 (KHTML, like Gecko) Chrome/121.0.0.0 Safari/537.36" etag="dphPUtyYhUTta3D_kItD" version="23.1.2" type="gitlab">
  <diagram name="Page-1" id="03018318-947c-dd8e-b7a3-06fadd420f32">
    <mxGraphModel dx="1772" dy="870" grid="1" gridSize="10" guides="1" tooltips="1" connect="1" arrows="1" fold="1" page="1" pageScale="1" pageWidth="1100" pageHeight="850" background="#ffffff" math="0" shadow="0">
      <root>
        <mxCell id="0" />
        <mxCell id="1" parent="0" />
        <mxCell id="jqHyryY0VZhZzjoj7nHx-6" value="" style="rounded=1;whiteSpace=wrap;html=1;fillColor=#003366;" vertex="1" parent="1">
          <mxGeometry x="100" y="160" width="940" height="550" as="geometry" />
        </mxCell>
        <mxCell id="jqHyryY0VZhZzjoj7nHx-7" value="&lt;font color=&quot;#ffffff&quot; style=&quot;font-size: 36px;&quot;&gt;Vegetable Image Prediction&lt;/font&gt;" style="text;html=1;points=[];align=left;verticalAlign=top;spacingTop=-4;fontSize=14;fontFamily=Verdana" vertex="1" parent="1">
          <mxGeometry x="320" y="190" width="560" height="60" as="geometry" />
        </mxCell>
        <mxCell id="jqHyryY0VZhZzjoj7nHx-8" style="edgeStyle=orthogonalEdgeStyle;rounded=0;orthogonalLoop=1;jettySize=auto;html=1;exitX=1;exitY=0.5;exitDx=0;exitDy=0;entryX=1;entryY=0.75;entryDx=0;entryDy=0;" edge="1" parent="1">
          <mxGeometry relative="1" as="geometry">
            <mxPoint x="790" y="370" as="sourcePoint" />
            <mxPoint x="790" y="380" as="targetPoint" />
          </mxGeometry>
        </mxCell>
        <mxCell id="jqHyryY0VZhZzjoj7nHx-9" value="&lt;font style=&quot;font-size: 24px;&quot;&gt;Predict&lt;/font&gt;" style="rounded=1;whiteSpace=wrap;html=1;fillColor=#dae8fc;strokeColor=#6c8ebf;" vertex="1" parent="1">
          <mxGeometry x="350" y="630" width="490" height="40" as="geometry" />
        </mxCell>
        <mxCell id="jqHyryY0VZhZzjoj7nHx-10" value="&lt;font color=&quot;#ffffff&quot; style=&quot;font-size: 18px;&quot;&gt;&amp;nbsp; &amp;nbsp; &amp;nbsp; &amp;nbsp;Model1_Large&lt;/font&gt;" style="rounded=1;whiteSpace=wrap;html=1;align=left;fillColor=#000000;" vertex="1" parent="1">
          <mxGeometry x="440" y="330" width="330" height="40" as="geometry" />
        </mxCell>
        <mxCell id="jqHyryY0VZhZzjoj7nHx-11" value="&lt;font color=&quot;#ffffff&quot; style=&quot;font-size: 24px;&quot;&gt;Choose a Model:&lt;/font&gt;" style="text;html=1;points=[];align=left;verticalAlign=top;spacingTop=-4;fontSize=14;fontFamily=Verdana" vertex="1" parent="1">
          <mxGeometry x="231" y="330" width="155" height="40" as="geometry" />
        </mxCell>
        <mxCell id="jqHyryY0VZhZzjoj7nHx-14" value="Copyright ©2023. ⚉ Vegetable Image Prediction ⚉ All rights reserved." style="whiteSpace=wrap;html=1;rounded=0;shadow=0;labelBackgroundColor=none;strokeWidth=1;fillColor=#f5f5f5;fontFamily=Verdana;fontSize=12;align=center;comic=1;fontColor=#333333;strokeColor=#666666;" vertex="1" parent="1">
          <mxGeometry y="740" width="1100" height="110" as="geometry" />
        </mxCell>
        <mxCell id="jqHyryY0VZhZzjoj7nHx-16" value="&lt;font style=&quot;font-size: 24px;&quot; color=&quot;#ffffff&quot;&gt;Upload an image and let our model predict the vegetable.&lt;/font&gt;" style="text;html=1;points=[];align=left;verticalAlign=top;spacingTop=-4;fontSize=14;fontFamily=Verdana" vertex="1" parent="1">
          <mxGeometry x="250" y="240" width="660" height="40" as="geometry" />
        </mxCell>
        <mxCell id="jqHyryY0VZhZzjoj7nHx-17" value="&lt;font color=&quot;#ffffff&quot; style=&quot;font-size: 24px;&quot;&gt;Upload an Image:&lt;/font&gt;" style="text;html=1;points=[];align=left;verticalAlign=top;spacingTop=-4;fontSize=14;fontFamily=Verdana" vertex="1" parent="1">
          <mxGeometry x="231" y="390" width="155" height="40" as="geometry" />
        </mxCell>
        <mxCell id="jqHyryY0VZhZzjoj7nHx-18" value="&lt;font color=&quot;#ffffff&quot; style=&quot;font-size: 18px;&quot;&gt;&lt;span style=&quot;white-space: pre;&quot;&gt;&#x9;&lt;/span&gt;Choose File&lt;/font&gt;" style="rounded=1;whiteSpace=wrap;html=1;align=left;fillColor=#000000;" vertex="1" parent="1">
          <mxGeometry x="231" y="440" width="599" height="130" as="geometry" />
        </mxCell>
        <mxCell id="jqHyryY0VZhZzjoj7nHx-20" value="" style="shape=singleArrow;direction=south;whiteSpace=wrap;html=1;" vertex="1" parent="1">
          <mxGeometry x="710" y="330" width="60" height="40" as="geometry" />
        </mxCell>
        <mxCell id="jqHyryY0VZhZzjoj7nHx-21" value="" style="whiteSpace=wrap;html=1;rounded=0;shadow=0;labelBackgroundColor=none;strokeWidth=1;fillColor=#f5f5f5;fontFamily=Verdana;fontSize=12;align=center;comic=1;fontColor=#333333;strokeColor=#666666;" vertex="1" parent="1">
          <mxGeometry x="30" y="40" width="1040" height="50" as="geometry" />
        </mxCell>
        <mxCell id="jqHyryY0VZhZzjoj7nHx-22" value="Home" style="text;html=1;points=[];align=left;verticalAlign=top;spacingTop=-4;fontSize=14;fontFamily=Verdana" vertex="1" parent="1">
          <mxGeometry x="610" y="55" width="60" height="20" as="geometry" />
        </mxCell>
        <mxCell id="jqHyryY0VZhZzjoj7nHx-23" value="&lt;span style=&quot;font-size: 18px;&quot;&gt;Vegetable Image Prediction&lt;/span&gt;" style="text;html=1;points=[];align=left;verticalAlign=top;spacingTop=-4;fontSize=14;fontFamily=Verdana" vertex="1" parent="1">
          <mxGeometry x="50" y="55" width="60" height="20" as="geometry" />
        </mxCell>
        <mxCell id="jqHyryY0VZhZzjoj7nHx-24" value="Predict Vegetables" style="text;html=1;points=[];align=left;verticalAlign=top;spacingTop=-4;fontSize=14;fontFamily=Verdana" vertex="1" parent="1">
          <mxGeometry x="670" y="55" width="60" height="20" as="geometry" />
        </mxCell>
        <mxCell id="jqHyryY0VZhZzjoj7nHx-25" value="Prediction History" style="text;html=1;points=[];align=left;verticalAlign=top;spacingTop=-4;fontSize=14;fontFamily=Verdana" vertex="1" parent="1">
          <mxGeometry x="820" y="55" width="60" height="20" as="geometry" />
        </mxCell>
        <mxCell id="jqHyryY0VZhZzjoj7nHx-26" value="Log Out" style="text;html=1;points=[];align=left;verticalAlign=top;spacingTop=-4;fontSize=14;fontFamily=Verdana" vertex="1" parent="1">
          <mxGeometry x="960" y="55" width="60" height="20" as="geometry" />
        </mxCell>
      </root>
    </mxGraphModel>
  </diagram>
</mxfile>
